<svg version="1.1" xmlns="http://www.w3.org/2000/svg" viewBox="-307.2 -957.4400512695313 5050.36826171875 4099.840142822265"><desc>Created with Snap</desc><defs></defs><g><rect x="-307.2" y="-957.4400512695313" width="5050.36826171875" height="4099.840142822265" fill="#6d1ff2" style=""></rect><g transform="matrix(70.9736,0,0,70.9736,1100.15,635.0186)"><g transform="translate(0,-1020.3622)"><g transform="translate(-1.5,-2.5)"><path style="color: rgb(0, 0, 0); font-style: normal; font-variant-ligatures: normal; font-variant-caps: normal; font-variant-east-asian: normal; font-variant-position: normal; font-weight: normal; font-stretch: normal; font-size: medium; line-height: normal; font-family: sans-serif; text-indent: 0px; text-align: start; text-decoration: none; text-decoration-line: none; text-decoration-style: solid; text-decoration-color: rgb(0, 0, 0); letter-spacing: normal; word-spacing: normal; text-transform: none; direction: ltr; writing-mode: lr-tb; baseline-shift: baseline; text-anchor: start; white-space: normal; clip-rule: nonzero; display: inline; overflow: visible; visibility: visible; opacity: 1; isolation: auto; mix-blend-mode: normal; color-interpolation: sRGB; color-interpolation-filters: linearRGB; fill-opacity: 1; fill-rule: nonzero; stroke: none; stroke-width: 1px; stroke-linecap: butt; stroke-linejoin: miter; stroke-miterlimit: 4; stroke-dasharray: none; stroke-dashoffset: 0px; stroke-opacity: 1; color-rendering: auto; image-rendering: auto; shape-rendering: auto; text-rendering: auto;" d="M 18.619141 -0.001953125 L 18.242188 0.01953125 C 16.424215 0.12603125 15.002158 1.6566875 15.001953 3.4921875 C 15.003153 3.8842875 15.069833 4.2727781 15.199219 4.6425781 L 15.324219 5 L 15.701172 4.9785156 C 17.519189 4.8720156 18.941262 3.3413594 18.941406 1.5058594 C 18.940206 1.1137594 18.873516 0.72526875 18.744141 0.35546875 L 18.619141 -0.001953125 z M 17.890625 1.2128906 C 17.902895 1.3128906 17.941106 1.4071125 17.941406 1.5078125 C 17.941315 2.6643125 17.109815 3.5132625 16.052734 3.7890625 C 16.040464 3.6890625 16.002243 3.5948406 16.001953 3.4941406 C 16.002082 2.3376406 16.833568 1.4886906 17.890625 1.2128906 z M 17.976562 5.421875 L 17.976562 5.4277344 L 17.923828 5.4375 C 17.916528 5.4375 17.834558 5.4471719 17.755859 5.4511719 L 17.751953 5.4511719 L 17.736328 5.4511719 C 17.721888 5.4511719 17.722281 5.4516719 17.707031 5.4511719 C 17.633601 5.4611719 17.5663 5.4657969 17.5625 5.4667969 C 17.09894 5.5164849 16.649499 5.6519462 16.230469 5.8574219 C 15.80258 6.0055224 15.401716 6.1210938 15.001953 6.1210938 C 14.576 6.1210938 14.193261 6.00212 13.753906 5.8496094 C 13.208275 5.5818077 12.608252 5.4388602 12 5.4375 L 11.996094 5.4375 L 11.992188 5.4375 C 11.964807 5.438 11.948422 5.4375 11.945312 5.4375 L 11.9375 5.4375 L 11.929688 5.4375 C 11.912347 5.4374 11.899965 5.4375 11.890625 5.4375 L 11.845703 5.4375 L 11.833984 5.4375 C 9.6967154 5.5265 8.00057 7.2923406 8 9.4316406 C 8 11.324541 8.7888291 13.279775 9.7675781 14.796875 C 10.256953 15.555375 10.794077 16.203587 11.332031 16.679688 C 11.46328 16.795821 11.593226 16.903164 11.724609 17 L 4.5 17 L 4.5 18 L 23.5 18 C 24.893649 18 26 19.1064 26 20.5 C 26 21.8937 24.893649 23 23.5 23 L 4.5 23 L 4.5 24 L 8 24 C 6.0696486 24 4.5 25.5697 4.5 27.5 C 4.5 29.4304 6.0696486 31 8 31 L 27 31 L 27 30 L 8 30 C 6.6063514 30 5.5 28.8937 5.5 27.5 C 5.5 26.1064 6.6063514 25 8 25 L 27 25 L 27 24 L 23.5 24 C 25.430351 24 27 22.4304 27 20.5 C 27 18.5697 25.430351 17 23.5 17 L 18.275391 17 C 18.406774 16.903164 18.53672 16.795821 18.667969 16.679688 C 19.205923 16.203587 19.743047 15.555375 20.232422 14.796875 C 21.211171 13.279775 22 11.324541 22 9.4316406 C 21.9978 7.3232406 20.340702 5.60405 18.251953 5.46875 L 18.251953 5.4453125 L 18.148438 5.4453125 C 18.139437 5.4450125 18.132077 5.4355469 18.123047 5.4355469 L 18.115234 5.4355469 L 18.107422 5.4355469 C 18.226017 5.4355469 18.20202 5.425875 18.03125 5.421875 L 17.976562 5.421875 z M 18.001953 6.4257812 L 18.001953 6.4316406 C 17.920963 6.4309406 17.945383 6.4433594 18.107422 6.4433594 L 18.091797 6.4433594 C 19.715998 6.4933594 20.99828 7.8144531 21 9.4394531 C 20.999462 11.046153 20.28849 12.873119 19.392578 14.261719 C 18.944453 14.956319 18.450327 15.5425 18.003906 15.9375 C 17.557485 16.3326 17.149306 16.5 17 16.5 C 16.315978 16.5 16.067758 16.385137 15.878906 16.273438 C 15.784476 16.217437 15.699665 16.148859 15.5625 16.068359 C 15.425335 15.988359 15.216584 15.90625 14.992188 15.90625 C 14.767789 15.90625 14.558388 15.989313 14.421875 16.070312 C 14.285362 16.151312 14.203205 16.220191 14.111328 16.275391 C 13.927575 16.385791 13.684022 16.5 13 16.5 C 12.850694 16.5 12.442515 16.3326 11.996094 15.9375 C 11.549673 15.5425 11.055547 14.956319 10.607422 14.261719 C 9.7111709 12.872619 9 11.0447 9 9.4375 C 9.0015 7.8248 10.265255 6.5085062 11.876953 6.4414062 L 11.890625 6.4414062 L 11.921875 6.4414062 C 11.953805 6.4422063 11.979777 6.4418062 11.998047 6.4414062 C 12.467585 6.4414062 12.930972 6.5550781 13.349609 6.7675781 L 13.378906 6.7832031 L 13.412109 6.7929688 C 13.868197 6.9515687 14.383321 7.125 15.001953 7.125 C 15.594292 7.125 16.111641 6.9589344 16.5625 6.8027344 L 16.595703 6.7910156 L 16.625 6.7753906 C 16.951023 6.6087906 17.305011 6.5043438 17.669922 6.4648438 L 17.675781 6.4648438 L 17.679688 6.4648438 C 17.723067 6.4548438 17.70807 6.4650781 17.71875 6.4550781 L 17.796875 6.4433594 C 17.824605 6.4433594 17.919798 6.4337813 18.001953 6.4257812 z M 14.992188 16.900391 C 15.021697 16.900391 15.004111 16.890781 15.056641 16.925781 C 15.075728 16.937045 15.13729 16.977627 15.169922 17 L 14.818359 17 C 14.851893 16.97672 14.914804 16.935045 14.933594 16.923828 C 14.983844 16.893828 14.962688 16.900391 14.992188 16.900391 z " transform="translate(1.5,1022.8622)" fill="#ffffff"></path></g></g><desc>Created with Snap</desc><defs></defs></g><g><g transform="matrix(1.024,0,0,-1.024,0,0)"><path d="M452 480L446 406Q446 266 464 159Q482 53 507 53Q541 53 582 148Q623 243 623 338Q623 447 600 486Q591 500 572 519Q537 554 537 586Q537 601 545 610Q554 620 566 620Q597 620 618 595Q639 571 648 532Q665 463 665 386Q665 207 598 96Q532 -15 468 -15Q422 -15 399 83Q377 181 377 332Q317 82 250 16Q217 -15 179 -15Q159 -15 139 2Q120 20 111 49Q91 108 91 274Q49 280 16 296Q0 304 0 314Q0 324 20 324L92 309Q101 482 157 576Q187 627 224 627Q291 627 291 527Q291 446 260 372Q229 298 167 278Q167 211 175 158Q191 53 214 53Q233 53 264 110Q295 168 324 266Q354 364 363 459Q364 473 390 491Q416 509 426 509Q452 509 452 480ZM167 309Q210 326 233 390Q257 455 257 492Q257 530 254 548Q247 579 235 579Q213 579 191 487Q170 396 167 309ZM811 -5Q755 -5 722 37Q689 80 689 134Q689 243 735 299Q781 355 854 355Q888 355 910 336Q932 318 932 286Q932 226 881 185Q831 145 758 143Q762 104 784 75Q807 47 837 47Q867 47 891 61Q915 75 935 101Q977 156 1007 226Q1015 244 1019 252Q1024 260 1029 260Q1035 260 1035 252Q1035 202 974 102Q908 -5 811 -5ZM758 167Q817 177 844 205Q872 233 872 278Q872 323 843 323Q808 323 784 274Q760 226 758 167ZM1169 345Q1215 345 1245 311Q1275 278 1276 218Q1317 230 1348 247Q1380 264 1382 264Q1388 264 1388 254Q1388 244 1359 223Q1331 202 1274 181Q1262 92 1202 43Q1142 -5 1082 -5Q1022 -5 1002 39Q982 84 982 180Q982 276 996 362Q1010 448 1032 497Q1054 547 1077 573Q1101 600 1122 600Q1132 600 1140 576Q1149 552 1149 517Q1149 440 1121 337Q1140 345 1169 345ZM1214 165Q1206 164 1180 164Q1155 164 1124 181Q1094 199 1083 230Q1073 205 1060 182Q1062 106 1072 73Q1082 40 1104 40Q1139 40 1172 69Q1206 99 1214 165ZM1125 499Q1125 541 1114 541Q1105 541 1092 497Q1080 454 1069 379Q1059 305 1059 232Q1125 419 1125 499ZM1153 309Q1139 309 1130 300Q1122 292 1122 278Q1122 247 1149 226Q1177 206 1216 206Q1215 247 1200 278Q1185 309 1153 309ZM1617 359L1623 295Q1623 285 1612 279Q1602 273 1595 273Q1581 273 1570 295Q1560 318 1560 337Q1560 411 1611 462Q1663 514 1742 540Q1742 574 1756 604Q1771 635 1802 635Q1815 635 1815 598L1815 556Q1847 560 1862 560Q1995 560 2072 485Q2150 411 2150 298Q2150 220 2122 160Q2094 100 2046 65Q1950 -5 1816 -5L1795 -5Q1792 -34 1787 -34Q1740 -34 1724 -21Q1717 -14 1716 3Q1627 28 1627 58Q1627 68 1634 73Q1641 79 1649 79Q1658 79 1716 55Q1725 317 1739 505Q1684 486 1650 448Q1617 410 1617 359ZM1835 521Q1821 521 1814 520Q1810 345 1804 226Q1799 71 1797 31Q1817 28 1839 28Q1934 28 2004 98Q2074 169 2074 272Q2074 375 2007 448Q1940 521 1835 521ZM2315 -5Q2259 -5 2226 37Q2193 80 2193 134Q2193 243 2239 299Q2285 355 2358 355Q2392 355 2414 336Q2436 318 2436 286Q2436 226 2385 185Q2335 145 2262 143Q2266 104 2288 75Q2311 47 2341 47Q2371 47 2395 61Q2419 75 2439 101Q2481 156 2511 226Q2519 244 2523 252Q2528 260 2533 260Q2539 260 2539 252Q2539 202 2478 102Q2412 -5 2315 -5ZM2262 167Q2321 177 2348 205Q2376 233 2376 278Q2376 323 2347 323Q2312 323 2288 274Q2264 226 2262 167ZM2611 44Q2647 44 2674 81Q2701 119 2714 173Q2678 184 2659 211Q2640 239 2640 275Q2640 311 2658 338Q2677 365 2712 365Q2733 365 2744 338Q2755 312 2755 279Q2755 246 2750 213Q2765 207 2782 207Q2821 207 2857 243Q2875 261 2881 261Q2888 261 2888 251Q2888 241 2875 227Q2822 168 2741 168Q2722 95 2682 45Q2642 -5 2584 -5Q2550 -5 2528 24Q2491 71 2491 162Q2491 193 2496 242Q2501 291 2507 302Q2514 313 2539 329Q2565 345 2575 345Q2590 345 2590 327Q2590 276 2564 216Q2564 145 2575 94Q2587 44 2611 44ZM2702 327Q2694 327 2694 294Q2694 261 2724 231Q2726 243 2726 255Q2726 327 2702 327ZM2909 -5Q2887 -5 2868 0Q2850 6 2846 11Q2836 23 2836 135Q2836 248 2861 441Q2882 600 2959 600Q2977 600 2985 580Q2993 561 2993 543Q2993 413 2914 252Q2911 169 2911 107Q2911 46 2922 46Q2939 47 2969 88Q2999 130 3028 195Q3058 260 3064 260Q3071 260 3071 252Q3071 224 3042 163Q2963 -5 2909 -5ZM2968 534Q2968 566 2960 566Q2930 566 2916 317Q2968 454 2968 534ZM3324 217Q3364 230 3379 239Q3395 249 3403 254L3415 261Q3420 264 3423 264Q3431 264 3431 255Q3431 246 3400 223Q3369 201 3323 183Q3316 99 3270 47Q3224 -5 3139 -5Q3077 -5 3044 44Q3011 94 3011 160Q3011 227 3050 286Q3090 345 3152 345Q3180 365 3218 365Q3257 365 3290 324Q3323 283 3324 217ZM3259 166L3223 164Q3177 164 3145 191Q3113 219 3113 252Q3113 285 3124 309Q3081 275 3081 175Q3081 127 3101 83Q3121 40 3164 40Q3207 40 3231 76Q3255 113 3259 166ZM3197 332Q3181 332 3172 317Q3163 303 3163 286Q3163 249 3188 226Q3214 203 3248 203L3260 203Q3258 252 3243 292Q3229 332 3197 332ZM3406 311Q3417 324 3441 344Q3465 365 3479 365Q3493 365 3493 325Q3493 286 3472 248Q3468 230 3466 196Q3495 275 3524 315Q3553 355 3594 355Q3636 355 3667 317Q3698 280 3698 199Q3698 119 3652 57Q3607 -5 3533 -5Q3495 -5 3456 23Q3456 -168 3434 -268Q3432 -277 3407 -299Q3383 -320 3371 -320Q3360 -320 3355 -304Q3350 -288 3350 -274Q3350 -171 3392 -9Q3399 85 3401 197Q3404 309 3406 311ZM3539 31Q3568 31 3599 71Q3630 112 3630 171Q3630 231 3613 266Q3597 302 3569 302Q3521 302 3460 103Q3458 75 3458 59Q3486 31 3539 31ZM3857 -5Q3801 -5 3768 37Q3735 80 3735 134Q3735 243 3781 299Q3827 355 3900 355Q3934 355 3956 336Q3978 318 3978 286Q3978 226 3927 185Q3877 145 3804 143Q3808 104 3830 75Q3853 47 3883 47Q3913 47 3937 61Q3961 75 3981 101Q4023 156 4053 226Q4061 244 4065 252Q4070 260 4075 260Q4081 260 4081 252Q4081 202 4020 102Q3954 -5 3857 -5ZM3804 167Q3863 177 3890 205Q3918 233 3918 278Q3918 323 3889 323Q3854 323 3830 274Q3806 226 3804 167ZM4115 261L4170 267Q4178 267 4184 258Q4190 249 4190 239Q4190 229 4183 171Q4177 113 4177 79Q4177 46 4183 46Q4200 47 4230 88Q4260 130 4289 195Q4319 260 4325 260Q4332 260 4332 252Q4332 224 4303 163Q4224 -5 4170 -5Q4131 -5 4111 11Q4104 18 4104 98Q4104 178 4121 235Q4063 235 4040 272Q4028 291 4028 315Q4028 339 4038 357Q4048 375 4066 375Q4085 375 4100 355Q4116 336 4116 312Q4116 288 4102 264Q4106 261 4115 261Z" fill="#ffffff" style=""></path></g></g></g></svg>